<svg width="48" height="48" viewBox="0 0 48 48" fill="none" xmlns="http://www.w3.org/2000/svg">
    <g clip-path="url(#clip0_359_10799)">
        <circle cx="24" cy="24" r="24" fill="#0D0D0D"/>
        <path d="M24.0051 8.93243C27.1323 12.8998 28.8017 17.7921 28.7412 22.8122V24.0106L29.773 24.638C31.1061 25.4444 32.1004 26.6953 32.5745 28.1626C32.1582 27.8563 31.7227 27.5761 31.2705 27.3237L28.5191 25.78L28.0247 28.8957C27.9819 29.171 27.9245 29.4439 27.8527 29.7134H20.1431C20.0284 29.361 19.9353 29.0084 19.8493 28.6419L19.2259 25.8222L16.6895 27.2321C16.2657 27.4688 15.8566 27.7302 15.4642 28.0145C15.9477 26.5642 16.9211 25.3204 18.2228 24.4899L19.2044 23.8625V22.7488C19.2221 17.749 20.9116 12.8939 24.0123 8.93243H24.0051ZM24.0123 6C23.8515 6.0004 23.6962 6.05799 23.5751 6.16217L23.5107 6.21856C19.3789 10.7647 17.0847 16.6433 17.0621 22.7417C15.3088 23.8608 14.0109 25.5505 13.3954 27.5155C12.7798 29.4804 12.8857 31.5957 13.6945 33.4918C14.5465 31.6405 15.9707 30.1011 17.7642 29.093C17.9441 29.8596 18.1837 30.6113 18.4808 31.3418C18.5184 31.4821 18.6019 31.6064 18.7185 31.6956C18.835 31.7848 18.978 31.8338 19.1256 31.8352H29.0708C29.2714 31.8352 29.472 31.6448 29.5724 31.3488C29.8623 30.6544 30.0644 29.9276 30.1742 29.1847C31.9711 30.1885 33.3966 31.7292 34.244 33.5833C35.1016 31.6967 35.2344 29.5681 34.6177 27.5925C34.0011 25.6168 32.6768 23.9284 30.8908 22.8404C30.9616 16.7061 28.6794 10.7709 24.4995 6.21856C24.4372 6.15007 24.361 6.09518 24.2759 6.05759C24.1906 6.0199 24.0984 6.0003 24.0051 6H24.0123Z" fill="#4EA8DE"/>
        <path d="M24.0049 22.1567C23.4546 22.1567 22.9166 21.9964 22.4587 21.6959C22.0008 21.3956 21.6436 20.9686 21.432 20.4688C21.2204 19.9689 21.164 19.4187 21.2698 18.8873C21.3756 18.356 21.6389 17.8674 22.0266 17.4831C22.4142 17.0987 22.9089 16.8359 23.4481 16.7277C23.9874 16.6195 24.5471 16.6708 25.0567 16.8752C25.5664 17.0794 26.0032 17.4276 26.312 17.8758C26.6208 18.3239 26.7879 18.852 26.7921 19.3934C26.8007 19.7442 26.7389 20.0934 26.6103 20.4207C26.4818 20.7481 26.2888 21.0474 26.0426 21.3013C25.7964 21.5553 25.5018 21.7591 25.1755 21.901C24.8492 22.043 24.4978 22.1203 24.1411 22.1285C24.0959 22.1356 24.05 22.1356 24.0049 22.1285V22.1567Z" fill="#4EA8DE"/>
        <path d="M27.8813 33.5904C27.702 33.5847 27.5234 33.6144 27.356 33.6776C27.1885 33.7408 27.0355 33.8362 26.906 33.9584C26.7766 34.0805 26.6731 34.2268 26.6019 34.3888C26.5307 34.5507 26.4931 34.7251 26.4912 34.9016V39.0606C26.4912 39.4232 26.6377 39.771 26.8984 40.0276C27.1591 40.284 27.5126 40.4281 27.8813 40.4281C28.2499 40.4281 28.6035 40.284 28.8642 40.0276C29.1249 39.771 29.2713 39.4232 29.2713 39.0606V34.958C29.277 34.7821 29.2471 34.607 29.1834 34.4427C29.1196 34.2784 29.0232 34.1282 28.8998 34.0009C28.7765 33.8736 28.6285 33.7718 28.4647 33.7013C28.3009 33.6308 28.1245 33.5931 27.9458 33.5904H27.8813Z" fill="#5E60CE"/>
        <path d="M20.143 33.5904C19.9607 33.5809 19.7783 33.6076 19.6066 33.6689C19.435 33.7302 19.2777 33.8248 19.144 33.9472C19.0103 34.0694 18.9029 34.217 18.8284 34.381C18.7538 34.545 18.7136 34.7219 18.71 34.9016V39.0606C18.71 39.4232 18.8564 39.7711 19.1171 40.0276C19.3778 40.284 19.7313 40.4281 20.1 40.4281C20.4687 40.4281 20.8222 40.284 21.0829 40.0276C21.3436 39.7711 21.49 39.4232 21.49 39.0606V34.958C21.4958 34.7821 21.4659 34.607 21.4021 34.4427C21.3383 34.2784 21.2419 34.1282 21.1185 34.001C20.9951 33.8736 20.8473 33.7718 20.6835 33.7013C20.5197 33.6308 20.3432 33.5931 20.1645 33.5904H20.143Z" fill="#5E60CE"/>
        <path d="M23.9047 33.5904C23.7259 33.5866 23.5481 33.6176 23.3815 33.6815C23.2149 33.7453 23.0627 33.8409 22.9336 33.9627C22.8045 34.0844 22.701 34.23 22.6292 34.3911C22.5573 34.5521 22.5184 34.7256 22.5146 34.9016V40.6325C22.5146 40.9952 22.6611 41.343 22.9218 41.5995C23.1824 41.8559 23.536 42 23.9047 42C24.2733 42 24.6269 41.8559 24.8876 41.5995C25.1483 41.343 25.2947 40.9952 25.2947 40.6325V34.9932C25.3004 34.8174 25.2705 34.6422 25.2068 34.478C25.143 34.3136 25.0466 34.1634 24.9232 34.0361C24.7999 33.9089 24.6519 33.807 24.4881 33.7365C24.3243 33.666 24.1479 33.6283 23.9692 33.6256L23.9047 33.5904Z" fill="#5E60CE"/>
    </g>
    <defs>
        <clipPath id="clip0_359_10799">
            <rect width="48" height="48" fill="white"/>
        </clipPath>
    </defs>
</svg>
